# xmcd
#
# Track frame offsets:
#	150
#	13064
#	32658
#	44176
#	54853
#	76799
#	89729
#	102059
#	115142
#	128343
#	140036
#	155336
#	168355
#	186786
#	203958
#	221282
#
# Disc length: 3145 seconds
#
# Revision: 0
# Processed by: cddbd v1.4PL0 Copyright (c) Steve Scherf et al.
# Submitted via: dBpowerAMP V4.0
#
DISCID=d20c4710
DTITLE=Various Artist - Classic Country Hits CD 7
DYEAR=1900
DGENRE=Country
TTITLE0=Mickey Gilley - Room Full Of Roses
TTITLE1=Billy Ray Cyrus - Some Gave All
TTITLE2=Sonny James - Young Love
TTITLE3=Willie Nelson - Blue Eyes Crying In The Rain
TTITLE4=Willie Nelson - City Of New Orleans
TTITLE5=Bobby Bare - Detroit City
TTITLE6=Charlie Rich - Rollin' With The Flow
TTITLE7=Eddie Rabbitt - Every Which Way But Loose
TTITLE8=Conway Twitty - Happy Birthday Darlin'
TTITLE9=Sammi Smith - Help Me Make It Through The Night 
TTITLE10=Jessi Colter - I'm Not Lisa
TTITLE11=Johnny Horton - North To Alaska 
TTITLE12=Patty Loveless - Where I'm Bound
TTITLE13=C.W. McCall - Convoy
TTITLE14=Ray Price - For The Good Times
TTITLE15=Lee Greenwood - God Bless The U.S.A.
EXTD=
EXTT0=
EXTT1=
EXTT2=
EXTT3=
EXTT4=
EXTT5=
EXTT6=
EXTT7=
EXTT8=
EXTT9=
EXTT10=
EXTT11=
EXTT12=
EXTT13=
EXTT14=
EXTT15=
PLAYORDER=
